<svg xmlns="http://www.w3.org/2000/svg" viewBox="0 0 1024 1024" role="img" aria-labelledby="title desc"><title id="title">Natural Ingredients</title><desc id="desc">Elegant cosmetic droplet integrated with a botanical leaf.</desc><circle cx="512" cy="512" r="470" fill="#F6F1EA"/><g fill="none" stroke="#3B3836" stroke-width="24" stroke-linecap="round" stroke-linejoin="round"><path d="M512 246c-95 127-172 220-172 336 0 95 77 172 172 172s172-77 172-172c0-116-77-209-172-336z"/><path d="M490 620c46-63 99-91 162-88-16 65-59 112-126 133-17 6-32-1-36-18-2-9-2-18 0-27z"/><path d="M514 638c34-28 69-51 108-70"/></g></svg>