<svg xmlns="http://www.w3.org/2000/svg" viewBox="0 0 1024 1024" role="img" aria-labelledby="title desc"><title id="title">Professional Use</title><desc id="desc">Premium salon treatment chair with professional spray tanning gun.</desc><circle cx="512" cy="512" r="470" fill="#F6F1EA"/><g fill="none" stroke="#3B3836" stroke-width="24" stroke-linecap="round" stroke-linejoin="round"><path d="M347 356h110c36 0 65 29 65 65v172H389c-34 0-62-28-62-62V376c0-11 9-20 20-20z"/><path d="M389 593h219c33 0 59 26 59 59v26H389z"/><path d="M503 678v88M447 766h112"/><path d="M610 425h94c29 0 52 23 52 52v17h-93l-27 55h-70l22-55h-44v-40h66z"/><path d="M704 442l45-30M713 474l55-6"/></g></svg>